<svg width="64" height="64" viewBox="0 0 64 64" fill="none" xmlns="http://www.w3.org/2000/svg">
<circle cx="32" cy="32" r="32" fill="#E1FFED"/>
<path d="M38.666 20.6665H25.3327C21.3327 20.6665 18.666 22.6665 18.666 27.3332V36.6665C18.666 41.3332 21.3327 43.3332 25.3327 43.3332H38.666C42.666 43.3332 45.3327 41.3332 45.3327 36.6665V27.3332C45.3327 22.6665 42.666 20.6665 38.666 20.6665ZM26.666 39.6665H22.666C22.1193 39.6665 21.666 39.2132 21.666 38.6665C21.666 38.1198 22.1193 37.6665 22.666 37.6665H26.666C27.2127 37.6665 27.666 38.1198 27.666 38.6665C27.666 39.2132 27.2127 39.6665 26.666 39.6665ZM31.9993 35.9998C29.786 35.9998 27.9993 34.2132 27.9993 31.9998C27.9993 29.7865 29.786 27.9998 31.9993 27.9998C34.2127 27.9998 35.9993 29.7865 35.9993 31.9998C35.9993 34.2132 34.2127 35.9998 31.9993 35.9998ZM41.3327 26.3332H37.3327C36.786 26.3332 36.3327 25.8798 36.3327 25.3332C36.3327 24.7865 36.786 24.3332 37.3327 24.3332H41.3327C41.8793 24.3332 42.3327 24.7865 42.3327 25.3332C42.3327 25.8798 41.8793 26.3332 41.3327 26.3332Z" fill="#9FF2CF"/>
</svg>
