<svg width="64" height="64" viewBox="0 0 64 64" fill="none" xmlns="http://www.w3.org/2000/svg">
<circle cx="32" cy="32" r="32" fill="#F2F9FF"/>
<path d="M32.904 42.6093C33.2704 42.6945 33.3039 43.1743 32.9471 43.2932V43.2932L30.8405 43.9866C25.5471 45.6932 22.7605 44.2666 21.0405 38.9732L19.3338 33.7066C17.6271 28.4132 19.0405 25.6132 24.3338 23.9066L25.3711 23.563C25.774 23.4296 26.1617 23.832 26.0393 24.2383C25.9272 24.6103 25.8221 25.0064 25.7205 25.4266L24.4138 31.0132C22.9471 37.2932 25.0938 40.7599 31.3738 42.2532L32.904 42.6093Z" fill="#B9C4FF"/>
<path d="M38.8929 20.2802L36.6663 19.7602C32.2129 18.7068 29.5596 19.5735 27.9996 22.8002C27.5996 23.6135 27.2796 24.6002 27.0129 25.7335L25.7063 31.3202C24.3996 36.8935 26.1196 39.6402 31.6796 40.9602L33.9196 41.4935C34.6929 41.6802 35.4129 41.8002 36.0796 41.8535C40.2396 42.2535 42.4529 40.3068 43.5729 35.4935L44.8796 29.9202C46.1863 24.3468 44.4796 21.5868 38.8929 20.2802ZM36.3863 33.7735C36.2663 34.2268 35.8663 34.5202 35.4129 34.5202C35.3329 34.5202 35.2529 34.5068 35.1596 34.4935L31.2796 33.5068C30.7463 33.3735 30.4263 32.8268 30.5596 32.2935C30.6929 31.7602 31.2396 31.4402 31.7729 31.5735L35.6529 32.5602C36.1996 32.6935 36.5196 33.2402 36.3863 33.7735ZM40.2929 29.2668C40.1729 29.7202 39.7729 30.0135 39.3196 30.0135C39.2396 30.0135 39.1596 30.0002 39.0663 29.9868L32.5996 28.3468C32.0663 28.2135 31.7463 27.6668 31.8796 27.1335C32.0129 26.6002 32.5596 26.2802 33.0929 26.4135L39.5596 28.0535C40.1063 28.1735 40.4263 28.7202 40.2929 29.2668Z" fill="#B9C4FF"/>
</svg>
